<svg width="73" height="73" viewBox="0 0 73 73" fill="none" xmlns="http://www.w3.org/2000/svg">
<g filter="url(#filter0_d_241_41389)">
<path d="M67.0049 6V3H64.0049V0H61.0049V3V6H64.0049V9H67.0049V6Z" fill="#1E3445"/>
<path d="M67.0049 6V9H70.0003V6H67.0049Z" fill="#1E3445"/>
<rect width="52.0092" height="3" transform="matrix(-1 0 0 1 61.0049 0)" fill="#1E3445"/>
<path d="M2.99512 6V3H5.99512V0H8.99512V3V6H5.99512V9H2.99512V6Z" fill="#1E3445"/>
<path d="M2.99512 6V9H-0.000288963V6H2.99512Z" fill="#1E3445"/>
<rect width="3" height="52" transform="matrix(-1 0 0 1 70 9)" fill="#1E3445"/>
<rect width="64" height="64" transform="matrix(-1 0 0 1 67 3)" fill="white"/>
<g clip-path="url(#clip0_241_41389)">
<path d="M51.1001 35.005H49.5801V42.625H51.1001V35.005Z" fill="#000001"/>
<path d="M49.5798 42.625H48.0498V45.665H49.5798V42.625Z" fill="#000001"/>
<path d="M49.5798 31.955H48.0498V35.005H49.5798V31.955Z" fill="#000001"/>
<path d="M48.0493 45.665H46.5293V48.715H48.0493V45.665Z" fill="#000001"/>
<path d="M48.0493 30.425H46.5293V31.955H48.0493V30.425Z" fill="#000001"/>
<path d="M46.53 48.715H45V50.235H46.53V48.715Z" fill="#000001"/>
<path d="M46.53 39.575H45V42.625H46.53V39.575Z" fill="#000001"/>
<path d="M46.53 35.005H45V38.045H46.53V35.005Z" fill="#000001"/>
<path d="M46.53 28.905H45V30.425H46.53V28.905Z" fill="#000001"/>
<path d="M44.9995 42.625H43.4795V44.145H44.9995V42.625Z" fill="#000001"/>
<path d="M44.9995 30.425H43.4795V35.005H44.9995V30.425Z" fill="#000001"/>
<path d="M44.9995 24.335H43.4795V25.855H44.9995V24.335Z" fill="#000001"/>
<path d="M43.48 44.145H41.96V45.665H43.48V44.145Z" fill="#000001"/>
<path d="M45 38.045H41.96V39.575H45V38.045Z" fill="#000001"/>
<path d="M43.48 25.855H41.96V27.385H43.48V25.855Z" fill="#000001"/>
<path d="M43.48 22.815H41.96V24.335H43.48V22.815Z" fill="#000001"/>
<path d="M41.9597 39.575H40.4297V41.095H41.9597V39.575Z" fill="#000001"/>
<path d="M41.9597 27.385H40.4297V28.905H41.9597V27.385Z" fill="#000001"/>
<path d="M41.9597 21.285H40.4297V22.815H41.9597V21.285Z" fill="#000001"/>
<path d="M40.4292 48.715H38.9092V50.235H40.4292V48.715Z" fill="#000001"/>
<path d="M40.4292 41.095H38.9092V42.625H40.4292V41.095Z" fill="#000001"/>
<path d="M40.4292 28.905H38.9092V30.425H40.4292V28.905Z" fill="#000001"/>
<path d="M40.4292 19.765H38.9092V21.285H40.4292V19.765Z" fill="#000001"/>
<path d="M38.9096 42.625H37.3896V48.715H38.9096V42.625Z" fill="#000001"/>
<path d="M37.3894 19.765H35.8594V22.815H37.3894V19.765Z" fill="#000001"/>
<path d="M35.8598 22.815H34.3398V27.385H35.8598V22.815Z" fill="#000001"/>
<path d="M34.3396 27.385H32.8096V30.425H34.3396V27.385Z" fill="#000001"/>
<path d="M32.81 42.625H31.29V48.715H32.81V42.625Z" fill="#000001"/>
<path d="M31.2895 48.715H29.7695V50.235H31.2895V48.715Z" fill="#000001"/>
<path d="M31.2895 41.095H29.7695V42.625H31.2895V41.095Z" fill="#000001"/>
<path d="M31.2895 28.905H29.7695V30.425H31.2895V28.905Z" fill="#000001"/>
<path d="M31.2895 19.765H29.7695V21.285H31.2895V19.765Z" fill="#000001"/>
<path d="M29.7693 39.575H28.2393V41.095H29.7693V39.575Z" fill="#000001"/>
<path d="M29.7693 27.385H28.2393V28.905H29.7693V27.385Z" fill="#000001"/>
<path d="M29.7693 21.285H28.2393V22.815H29.7693V21.285Z" fill="#000001"/>
<path d="M28.2397 44.145H26.7197V45.665H28.2397V44.145Z" fill="#000001"/>
<path d="M28.2392 38.045H25.1992V39.575H28.2392V38.045Z" fill="#000001"/>
<path d="M28.2397 25.855H26.7197V27.385H28.2397V25.855Z" fill="#000001"/>
<path d="M28.2397 22.815H26.7197V24.335H28.2397V22.815Z" fill="#000001"/>
<path d="M26.7192 42.625H25.1992V44.145H26.7192V42.625Z" fill="#000001"/>
<path d="M26.7192 30.425H25.1992V35.005H26.7192V30.425Z" fill="#000001"/>
<path d="M26.7192 24.335H25.1992V25.855H26.7192V24.335Z" fill="#000001"/>
<path d="M25.1999 48.715H23.6699V50.235H25.1999V48.715Z" fill="#000001"/>
<path d="M25.1999 39.575H23.6699V42.625H25.1999V39.575Z" fill="#000001"/>
<path d="M25.1999 35.005H23.6699V38.045H25.1999V35.005Z" fill="#000001"/>
<path d="M25.1999 28.905H23.6699V30.425H25.1999V28.905Z" fill="#000001"/>
<path d="M23.6694 45.665H22.1494V48.715H23.6694V45.665Z" fill="#000001"/>
<path d="M23.6694 30.425H22.1494V31.955H23.6694V30.425Z" fill="#000001"/>
<path d="M22.1491 42.625H20.6191V45.665H22.1491V42.625Z" fill="#000001"/>
<path d="M22.1491 31.955H20.6191V35.005H22.1491V31.955Z" fill="#000001"/>
<path d="M20.6196 35.005H19.0996V42.625H20.6196V35.005Z" fill="#000001"/>
</g>
<rect width="3" height="52" transform="matrix(-1 0 0 1 3 9)" fill="#1E3445"/>
<path d="M3 3V6V9H6V6H9V3H6H3Z" fill="#1E3445"/>
<path d="M67 3V6V9H64V6H61V3H64H67Z" fill="#1E3445"/>
<path d="M67.0049 64V67H64.0049V70H61.0049V67V64H64.0049V61H67.0049V64Z" fill="#1E3445"/>
<path d="M67.0049 64V61H70.0003V64H67.0049Z" fill="#1E3445"/>
<rect x="61.0049" y="70" width="52.0092" height="3" transform="rotate(180 61.0049 70)" fill="#1E3445"/>
<path d="M2.99512 64V67H5.99512V70H8.99512V67V64H5.99512V61H2.99512V64Z" fill="#1E3445"/>
<path d="M2.99512 64V61H-0.000288963V64H2.99512Z" fill="#1E3445"/>
</g>
<defs>
<filter id="filter0_d_241_41389" x="0" y="0" width="73" height="73" filterUnits="userSpaceOnUse" color-interpolation-filters="sRGB">
<feFlood flood-opacity="0" result="BackgroundImageFix"/>
<feColorMatrix in="SourceAlpha" type="matrix" values="0 0 0 0 0 0 0 0 0 0 0 0 0 0 0 0 0 0 127 0" result="hardAlpha"/>
<feOffset dx="3" dy="3"/>
<feComposite in2="hardAlpha" operator="out"/>
<feColorMatrix type="matrix" values="0 0 0 0 0.117647 0 0 0 0 0.203922 0 0 0 0 0.270588 0 0 0 1 0"/>
<feBlend mode="normal" in2="BackgroundImageFix" result="effect1_dropShadow_241_41389"/>
<feBlend mode="normal" in="SourceGraphic" in2="effect1_dropShadow_241_41389" result="shape"/>
</filter>
<clipPath id="clip0_241_41389">
<rect width="32" height="32" fill="white" transform="translate(19.0996 19)"/>
</clipPath>
</defs>
</svg>
