<svg width="73" height="73" viewBox="0 0 73 73" fill="none" xmlns="http://www.w3.org/2000/svg">
<g filter="url(#filter0_d_241_41410)">
<path d="M67.0049 6V3H64.0049V0H61.0049V3V6H64.0049V9H67.0049V6Z" fill="#1E3445"/>
<path d="M67.0049 6V9H70.0003V6H67.0049Z" fill="#1E3445"/>
<rect width="52.0092" height="3" transform="matrix(-1 0 0 1 61.0049 0)" fill="#1E3445"/>
<path d="M2.99512 6V3H5.99512V0H8.99512V3V6H5.99512V9H2.99512V6Z" fill="#1E3445"/>
<path d="M2.99512 6V9H-0.000288963V6H2.99512Z" fill="#1E3445"/>
<rect width="3" height="52" transform="matrix(-1 0 0 1 70 9)" fill="#1E3445"/>
<rect width="64" height="64" transform="matrix(-1 0 0 1 67 3)" fill="white"/>
<g clip-path="url(#clip0_241_41410)">
<path d="M49.3298 44.9H47.7998V46.43H50.8498V40.33H49.3298V44.9Z" fill="#000001"/>
<path d="M47.7998 23.57V25.09H49.3298V29.67H50.8498V23.57H47.7998Z" fill="#000001"/>
<path d="M49.3298 38.81H47.7998V40.33H49.3298V38.81Z" fill="#000001"/>
<path d="M49.3298 29.67H47.7998V31.19H49.3298V29.67Z" fill="#000001"/>
<path d="M47.7993 43.38H46.2793V44.9H47.7993V43.38Z" fill="#000001"/>
<path d="M47.7993 25.09H46.2793V26.62H47.7993V25.09Z" fill="#000001"/>
<path d="M41.7095 41.86V46.43H43.2295V47.95H44.7595V49.48H40.1895V51H47.7995V47.95H46.2795V46.43H44.7595V43.38H46.2795V41.86H41.7095Z" fill="#000001"/>
<path d="M47.8 31.19H41.71V32.71H47.8V31.19Z" fill="#000001"/>
<path d="M44.7595 22.05H43.2295V23.57H44.7595V22.05Z" fill="#000001"/>
<path d="M41.71 28.14H46.28V26.62H43.23V23.57H41.71V28.14Z" fill="#000001"/>
<path d="M44.7595 20.52V22.05H46.2795V19H40.1895V20.52H44.7595Z" fill="#000001"/>
<path d="M40.1892 47.95H38.6592V49.48H40.1892V47.95Z" fill="#000001"/>
<path d="M40.1892 38.81H38.6592V40.33H40.1892V38.81Z" fill="#000001"/>
<path d="M38.6599 31.19H37.1399V28.14H34.0899V22.05H32.5699V20.52H31.0399V19H23.4199V22.05H24.9499V20.52H29.5199V22.05H31.0399V28.14H32.5699V29.67H34.0899V31.19H35.6099V32.71H37.1399V34.24H38.6599V35.76H40.1899V37.28H41.7099V38.81H47.7999V37.28H43.2299V35.76H41.7099V32.71H38.6599V31.19Z" fill="#000001"/>
<path d="M40.1892 20.52H38.6592V22.05H40.1892V20.52Z" fill="#000001"/>
<path d="M38.6596 41.86H37.1396V47.95H38.6596V41.86Z" fill="#000001"/>
<path d="M38.6596 37.28H37.1396V38.81H38.6596V37.28Z" fill="#000001"/>
<path d="M38.6596 22.05H37.1396V28.14H38.6596V22.05Z" fill="#000001"/>
<path d="M37.1394 40.33H35.6094V41.86H37.1394V40.33Z" fill="#000001"/>
<path d="M37.1394 35.76H35.6094V37.28H37.1394V35.76Z" fill="#000001"/>
<path d="M35.6098 38.81H34.0898V40.33H35.6098V38.81Z" fill="#000001"/>
<path d="M35.6098 34.24H34.0898V35.76H35.6098V34.24Z" fill="#000001"/>
<path d="M34.0893 40.33H32.5693V41.86H34.0893V40.33Z" fill="#000001"/>
<path d="M34.0893 37.28H32.5693V38.81H34.0893V37.28Z" fill="#000001"/>
<path d="M34.0893 32.71H32.5693V34.24H34.0893V32.71Z" fill="#000001"/>
<path d="M32.57 41.86H31.04V47.95H32.57V41.86Z" fill="#000001"/>
<path d="M32.57 35.76H31.04V37.28H32.57V35.76Z" fill="#000001"/>
<path d="M32.57 31.19H31.04V32.71H32.57V31.19Z" fill="#000001"/>
<path d="M31.0395 47.95H29.5195V49.48H31.0395V47.95Z" fill="#000001"/>
<path d="M31.0395 34.24H29.5195V35.76H31.0395V34.24Z" fill="#000001"/>
<path d="M31.0395 29.67H29.5195V31.19H31.0395V29.67Z" fill="#000001"/>
<path d="M29.52 35.76H28V37.28H29.52V35.76Z" fill="#000001"/>
<path d="M29.52 32.71H28V34.24H29.52V32.71Z" fill="#000001"/>
<path d="M24.9499 49.48V47.95H23.4199V51H29.5199V49.48H24.9499Z" fill="#000001"/>
<path d="M27.9999 41.86H23.4199V43.38H26.4699V46.43H27.9999V41.86Z" fill="#000001"/>
<path d="M27.9994 31.19H21.8994V32.71H27.9994V31.19Z" fill="#000001"/>
<path d="M26.4692 46.43H24.9492V47.95H26.4692V46.43Z" fill="#000001"/>
<path d="M26.4692 22.05H24.9492V23.57H26.4692V22.05Z" fill="#000001"/>
<path d="M27.9994 37.28H21.8994V38.81H27.9994V37.28Z" fill="#000001"/>
<path d="M27.9999 28.14V23.57H26.4699V26.62H23.4199V28.14H27.9999Z" fill="#000001"/>
<path d="M23.4194 43.38H21.8994V44.9H23.4194V43.38Z" fill="#000001"/>
<path d="M23.4194 25.09H21.8994V26.62H23.4194V25.09Z" fill="#000001"/>
<path d="M21.8999 38.81H20.3799V40.33H21.8999V38.81Z" fill="#000001"/>
<path d="M21.8999 29.67H20.3799V31.19H21.8999V29.67Z" fill="#000001"/>
<path d="M20.3796 40.33H18.8496V46.43H21.8996V44.9H20.3796V40.33Z" fill="#000001"/>
<path d="M20.3796 25.09H21.8996V23.57H18.8496V29.67H20.3796V25.09Z" fill="#000001"/>
</g>
<rect width="3" height="52" transform="matrix(-1 0 0 1 3 9)" fill="#1E3445"/>
<path d="M3 3V6V9H6V6H9V3H6H3Z" fill="#1E3445"/>
<path d="M67 3V6V9H64V6H61V3H64H67Z" fill="#1E3445"/>
<path d="M67.0049 64V67H64.0049V70H61.0049V67V64H64.0049V61H67.0049V64Z" fill="#1E3445"/>
<path d="M67.0049 64V61H70.0003V64H67.0049Z" fill="#1E3445"/>
<rect x="61.0049" y="70" width="52.0092" height="3" transform="rotate(180 61.0049 70)" fill="#1E3445"/>
<path d="M2.99512 64V67H5.99512V70H8.99512V67V64H5.99512V61H2.99512V64Z" fill="#1E3445"/>
<path d="M2.99512 64V61H-0.000288963V64H2.99512Z" fill="#1E3445"/>
</g>
<defs>
<filter id="filter0_d_241_41410" x="0" y="0" width="73" height="73" filterUnits="userSpaceOnUse" color-interpolation-filters="sRGB">
<feFlood flood-opacity="0" result="BackgroundImageFix"/>
<feColorMatrix in="SourceAlpha" type="matrix" values="0 0 0 0 0 0 0 0 0 0 0 0 0 0 0 0 0 0 127 0" result="hardAlpha"/>
<feOffset dx="3" dy="3"/>
<feComposite in2="hardAlpha" operator="out"/>
<feColorMatrix type="matrix" values="0 0 0 0 0.117647 0 0 0 0 0.203922 0 0 0 0 0.270588 0 0 0 1 0"/>
<feBlend mode="normal" in2="BackgroundImageFix" result="effect1_dropShadow_241_41410"/>
<feBlend mode="normal" in="SourceGraphic" in2="effect1_dropShadow_241_41410" result="shape"/>
</filter>
<clipPath id="clip0_241_41410">
<rect width="32" height="32" fill="white" transform="translate(18.8496 19)"/>
</clipPath>
</defs>
</svg>
