<?xml version="1.0" encoding="UTF-8" standalone="no"?>
<!DOCTYPE svg PUBLIC "-//W3C//DTD SVG 1.1//EN" "http://www.w3.org/Graphics/SVG/1.1/DTD/svg11.dtd">
<svg width="100%" height="100%" viewBox="0 0 720 420" version="1.1" xmlns="http://www.w3.org/2000/svg" xmlns:xlink="http://www.w3.org/1999/xlink" xml:space="preserve" xmlns:serif="http://www.serif.com/" style="fill-rule:evenodd;clip-rule:evenodd;">
    <path d="M700,18L700,177C700,181.415 696.415,185 692,185L28,185C23.585,185 20,181.415 20,177L20,18C20,13.585 23.585,10 28,10L692,10C696.415,10 700,13.585 700,18Z" style="fill:rgb(26,31,46);stroke:rgb(58,66,88);stroke-width:1.5px;"/>
    <g transform="matrix(1,0,0,1,40,35)">
        <text x="0px" y="0px" style="font-family:'Menlo-Bold', 'Menlo', monospace;font-weight:700;font-size:12px;fill:rgb(136,146,168);">Client Process</text>
    </g>
    <g transform="matrix(1,0,0,1,50,65)">
        <text x="0px" y="0px" style="font-family:'Menlo-Bold', 'Menlo', monospace;font-weight:700;font-size:13px;fill:rgb(232,236,241);">conversation</text>
    </g>
    <g transform="matrix(1,0,0,1,155,65)">
        <text x="0px" y="0px" style="font-family:'Menlo-Regular', 'Menlo', monospace;font-size:13px;fill:rgb(126,184,224);">user_proxy</text>
    </g>
    <g transform="matrix(1,0,0,1,80,90)">
        <text x="0px" y="0px" style="font-family:'Menlo-Regular', 'Menlo', monospace;font-size:13px;fill:rgb(107,114,133);">├──</text>
    </g>
    <g transform="matrix(1,0,0,1,115,90)">
        <text x="0px" y="0px" style="font-family:'Menlo-Bold', 'Menlo', monospace;font-weight:700;font-size:13px;fill:rgb(232,236,241);">invoke_agent</text>
    </g>
    <g transform="matrix(1,0,0,1,230,90)">
        <text x="0px" y="0px" style="font-family:'Menlo-Regular', 'Menlo', monospace;font-size:13px;fill:rgb(126,184,224);">triage_agent</text>
    </g>
    <g transform="matrix(1,0,0,1,110,115)">
        <text x="0px" y="0px" style="font-family:'Menlo-Regular', 'Menlo', monospace;font-size:13px;fill:rgb(107,114,133);">└──</text>
    </g>
    <g transform="matrix(1,0,0,1,145,115)">
        <text x="0px" y="0px" style="font-family:'Menlo-Bold', 'Menlo', monospace;font-weight:700;font-size:13px;fill:rgb(232,236,241);">chat</text>
    </g>
    <g transform="matrix(1,0,0,1,198,115)">
        <text x="0px" y="0px" style="font-family:'Menlo-Regular', 'Menlo', monospace;font-size:13px;fill:rgb(126,184,224);">gpt-4o-mini</text>
    </g>
    <g transform="matrix(1,0,0,1,80,145)">
        <text x="0px" y="0px" style="font-family:'Menlo-Regular', 'Menlo', monospace;font-size:13px;fill:rgb(107,114,133);">├──</text>
    </g>
    <g transform="matrix(1,0,0,1,115,145)">
        <text x="0px" y="0px" style="font-family:'Menlo-Bold', 'Menlo', monospace;font-weight:700;font-size:13px;fill:rgb(232,236,241);">invoke_agent</text>
    </g>
    <g transform="matrix(1,0,0,1,230,145)">
        <text x="0px" y="0px" style="font-family:'Menlo-Regular', 'Menlo', monospace;font-size:13px;fill:rgb(126,184,224);">tech_agent</text>
    </g>
    <g transform="matrix(1,0,0,1,43,-22)">
        <path d="M520,135L520,147C520,149.208 518.208,151 516,151L324,151C321.792,151 320,149.208 320,147L320,135C320,132.792 321.792,131 324,131L516,131C518.208,131 520,132.792 520,135Z" style="fill:rgb(42,58,82);"/>
    </g>
    <g transform="matrix(1,0,0,1,373,124)">
        <text x="0px" y="0px" style="font-family:'Menlo-Regular', 'Menlo', monospace;font-size:11px;fill:rgb(75,156,214);">gen_ai.agent.remote = true</text>
    </g>
    <g transform="matrix(1,0,0,1,80,172)">
        <text x="0px" y="0px" style="font-family:'Menlo-Regular', 'Menlo', monospace;font-size:13px;fill:rgb(107,114,133);">...</text>
    </g>
    <path d="M700,228L700,402C700,406.415 696.415,410 692,410L28,410C23.585,410 20,406.415 20,402L20,228C20,223.585 23.585,220 28,220L692,220C696.415,220 700,223.585 700,228Z" style="fill:rgb(26,31,46);stroke:rgb(58,66,88);stroke-width:1.5px;"/>
    <g transform="matrix(1,0,0,1,40,245)">
        <text x="0px" y="0px" style="font-family:'Menlo-Bold', 'Menlo', monospace;font-weight:700;font-size:12px;fill:rgb(136,146,168);">Server Process (tech_agent A2A server)</text>
    </g>
    <g transform="matrix(1,0,0,1,50,280)">
        <text x="0px" y="0px" style="font-family:'Menlo-Bold', 'Menlo', monospace;font-weight:700;font-size:13px;fill:rgb(232,236,241);">a2a-execution</text>
    </g>
    <g transform="matrix(1,0,0,1,70,310)">
        <text x="0px" y="0px" style="font-family:'Menlo-Regular', 'Menlo', monospace;font-size:13px;fill:rgb(107,114,133);">└──</text>
    </g>
    <g transform="matrix(1,0,0,1,105,310)">
        <text x="0px" y="0px" style="font-family:'Menlo-Bold', 'Menlo', monospace;font-weight:700;font-size:13px;fill:rgb(232,236,241);">conversation</text>
    </g>
    <g transform="matrix(1,0,0,1,210,310)">
        <text x="0px" y="0px" style="font-family:'Menlo-Regular', 'Menlo', monospace;font-size:13px;fill:rgb(126,184,224);">tech_agent</text>
    </g>
    <g transform="matrix(1,0,0,1,130,340)">
        <text x="0px" y="0px" style="font-family:'Menlo-Regular', 'Menlo', monospace;font-size:13px;fill:rgb(107,114,133);">├──</text>
    </g>
    <g transform="matrix(1,0,0,1,165,340)">
        <text x="0px" y="0px" style="font-family:'Menlo-Bold', 'Menlo', monospace;font-weight:700;font-size:13px;fill:rgb(232,236,241);">invoke_agent</text>
    </g>
    <g transform="matrix(1,0,0,1,280,340)">
        <text x="0px" y="0px" style="font-family:'Menlo-Regular', 'Menlo', monospace;font-size:13px;fill:rgb(126,184,224);">tech_agent</text>
    </g>
    <g transform="matrix(1,0,0,1,160,368)">
        <text x="0px" y="0px" style="font-family:'Menlo-Regular', 'Menlo', monospace;font-size:13px;fill:rgb(107,114,133);">└──</text>
    </g>
    <g transform="matrix(1,0,0,1,195,368)">
        <text x="0px" y="0px" style="font-family:'Menlo-Bold', 'Menlo', monospace;font-weight:700;font-size:13px;fill:rgb(232,236,241);">chat</text>
    </g>
    <g transform="matrix(1,0,0,1,246,368)">
        <text x="0px" y="0px" style="font-family:'Menlo-Regular', 'Menlo', monospace;font-size:13px;fill:rgb(126,184,224);">gpt-4o-mini</text>
    </g>
    <g transform="matrix(1,0,0,1,130,398)">
        <text x="0px" y="0px" style="font-family:'Menlo-Regular', 'Menlo', monospace;font-size:13px;fill:rgb(107,114,133);">...</text>
    </g>
    <path d="M540,141L548,141" style="fill:none;fill-rule:nonzero;stroke:rgb(75,156,214);stroke-width:1.5px;stroke-dasharray:6,3;"/>
    <g transform="matrix(1,0,0,1,-164.05375,0.249375)">
        <path d="M540,141L548,141" style="fill:none;fill-rule:nonzero;stroke:rgb(75,156,214);stroke-width:1.5px;stroke-dasharray:6,3;"/>
    </g>
    <g transform="matrix(1,0,0,1,-117.413333,135.333333)">
        <path d="M540,141L548,141" style="fill:none;fill-rule:nonzero;stroke:rgb(75,156,214);stroke-width:1.5px;stroke-dasharray:6,3;"/>
    </g>
    <g transform="matrix(1,0,0,1,-43.710625,135.333333)">
        <path d="M540,141L548,141" style="fill:none;fill-rule:nonzero;stroke:rgb(75,156,214);stroke-width:1.5px;stroke-dasharray:6,3;"/>
    </g>
    <g transform="matrix(1,0,0,1,-206.915625,0.249375)">
        <path d="M540,141L548,141" style="fill:none;fill-rule:nonzero;stroke:rgb(75,156,214);stroke-width:1.5px;stroke-dasharray:6,3;"/>
    </g>
    <g transform="matrix(1,0,0,1,-160.275208,135.333333)">
        <path d="M540,141L548,141" style="fill:none;fill-rule:nonzero;stroke:rgb(75,156,214);stroke-width:1.5px;stroke-dasharray:6,3;"/>
    </g>
    <g transform="matrix(1,0,0,1,-86.5725,135.333333)">
        <path d="M540,141L548,141" style="fill:none;fill-rule:nonzero;stroke:rgb(75,156,214);stroke-width:1.5px;stroke-dasharray:6,3;"/>
    </g>
    <g transform="matrix(1,0,0,1,-12.966042,135.333333)">
        <path d="M540,141L548,141" style="fill:none;fill-rule:nonzero;stroke:rgb(75,156,214);stroke-width:1.5px;stroke-dasharray:6,3;"/>
    </g>
    <g transform="matrix(1,0,0,1,-185.259375,0.249375)">
        <path d="M540,141L548,141" style="fill:none;fill-rule:nonzero;stroke:rgb(75,156,214);stroke-width:1.5px;stroke-dasharray:6,3;"/>
    </g>
    <g transform="matrix(1,0,0,1,-138.618958,135.333333)">
        <path d="M540,141L548,141" style="fill:none;fill-rule:nonzero;stroke:rgb(75,156,214);stroke-width:1.5px;stroke-dasharray:6,3;"/>
    </g>
    <g transform="matrix(1,0,0,1,-354.795,135.333333)">
        <path d="M540,141L548,141" style="fill:none;fill-rule:nonzero;stroke:rgb(75,156,214);stroke-width:1.5px;stroke-dasharray:6,3;"/>
    </g>
    <g transform="matrix(1,0,0,1,-64.91625,135.333333)">
        <path d="M540,141L548,141" style="fill:none;fill-rule:nonzero;stroke:rgb(75,156,214);stroke-width:1.5px;stroke-dasharray:6,3;"/>
    </g>
    <g transform="matrix(1,0,0,1,-228.12125,0.249375)">
        <path d="M540,141L548,141" style="fill:none;fill-rule:nonzero;stroke:rgb(75,156,214);stroke-width:1.5px;stroke-dasharray:6,3;"/>
    </g>
    <g transform="matrix(1,0,0,1,-181.480833,135.333333)">
        <path d="M540,141L548,141" style="fill:none;fill-rule:nonzero;stroke:rgb(75,156,214);stroke-width:1.5px;stroke-dasharray:6,3;"/>
    </g>
    <g transform="matrix(1,0,0,1,-107.778125,135.333333)">
        <path d="M540,141L548,141" style="fill:none;fill-rule:nonzero;stroke:rgb(75,156,214);stroke-width:1.5px;stroke-dasharray:6,3;"/>
    </g>
    <g transform="matrix(1,0,0,1,-34.171667,135.333333)">
        <path d="M540,141L548,141" style="fill:none;fill-rule:nonzero;stroke:rgb(75,156,214);stroke-width:1.5px;stroke-dasharray:6,3;"/>
    </g>
    <g transform="matrix(1,0,0,1,-174.714167,0.357292)">
        <path d="M540,141L548,141" style="fill:none;fill-rule:nonzero;stroke:rgb(75,156,214);stroke-width:1.5px;stroke-dasharray:6,3;"/>
    </g>
    <g transform="matrix(1,0,0,1,-128.07375,135.44125)">
        <path d="M540,141L548,141" style="fill:none;fill-rule:nonzero;stroke:rgb(75,156,214);stroke-width:1.5px;stroke-dasharray:6,3;"/>
    </g>
    <g transform="matrix(1,0,0,1,-344.249792,135.44125)">
        <path d="M540,141L548,141" style="fill:none;fill-rule:nonzero;stroke:rgb(75,156,214);stroke-width:1.5px;stroke-dasharray:6,3;"/>
    </g>
    <g transform="matrix(1,0,0,1,-54.371042,135.44125)">
        <path d="M540,141L548,141" style="fill:none;fill-rule:nonzero;stroke:rgb(75,156,214);stroke-width:1.5px;stroke-dasharray:6,3;"/>
    </g>
    <g transform="matrix(1,0,0,1,-217.576042,0.357292)">
        <path d="M540,141L548,141" style="fill:none;fill-rule:nonzero;stroke:rgb(75,156,214);stroke-width:1.5px;stroke-dasharray:6,3;"/>
    </g>
    <g transform="matrix(1,0,0,1,-170.935625,135.44125)">
        <path d="M540,141L548,141" style="fill:none;fill-rule:nonzero;stroke:rgb(75,156,214);stroke-width:1.5px;stroke-dasharray:6,3;"/>
    </g>
    <g transform="matrix(1,0,0,1,-97.232917,135.44125)">
        <path d="M540,141L548,141" style="fill:none;fill-rule:nonzero;stroke:rgb(75,156,214);stroke-width:1.5px;stroke-dasharray:6,3;"/>
    </g>
    <g transform="matrix(1,0,0,1,-23.626458,135.44125)">
        <path d="M540,141L548,141" style="fill:none;fill-rule:nonzero;stroke:rgb(75,156,214);stroke-width:1.5px;stroke-dasharray:6,3;"/>
    </g>
    <g transform="matrix(1,0,0,1,-149.279375,135.44125)">
        <path d="M540,141L548,141" style="fill:none;fill-rule:nonzero;stroke:rgb(75,156,214);stroke-width:1.5px;stroke-dasharray:6,3;"/>
    </g>
    <g transform="matrix(1,0,0,1,-365.455417,135.44125)">
        <path d="M540,141L548,141" style="fill:none;fill-rule:nonzero;stroke:rgb(75,156,214);stroke-width:1.5px;stroke-dasharray:6,3;"/>
    </g>
    <g transform="matrix(1,0,0,1,-75.576667,135.44125)">
        <path d="M540,141L548,141" style="fill:none;fill-rule:nonzero;stroke:rgb(75,156,214);stroke-width:1.5px;stroke-dasharray:6,3;"/>
    </g>
    <g transform="matrix(1,0,0,1,-1.970208,135.44125)">
        <path d="M540,141L548,141" style="fill:none;fill-rule:nonzero;stroke:rgb(75,156,214);stroke-width:1.5px;stroke-dasharray:6,3;"/>
    </g>
    <g transform="matrix(1,0,0,1,0,2)">
        <path d="M550,145C550,196.122 550,296.486 550,270" style="fill-rule:nonzero;stroke:rgb(75,156,214);stroke-width:1.5px;stroke-dasharray:6,3;"/>
    </g>
    <g transform="matrix(1,0,0,1,159,-58)">
        <path d="M375,194L375,206C375,208.208 373.208,210 371,210L234,210C231.792,210 230,208.208 230,206L230,194C230,191.792 231.792,190 234,190L371,190C373.208,190 375,191.792 375,194Z" style="fill:rgb(30,58,36);"/>
    </g>
    <g transform="matrix(1,0,0,1,399,146)">
        <text x="0px" y="0px" style="font-family:'Menlo-Regular', 'Menlo', monospace;font-size:11px;fill:rgb(92,184,92);">HTTP + traceparent</text>
    </g>
    <g transform="matrix(1,0,0,1,-178,76)">
        <path d="M530,194L530,206C530,208.208 528.208,210 526,210L389,210C386.792,210 385,208.208 385,206L385,194C385,191.792 386.792,190 389,190L526,190C528.208,190 530,191.792 530,194Z" style="fill:rgb(30,58,36);"/>
    </g>
    <g transform="matrix(1,0,0,1,217,280)">
        <text x="0px" y="0px" style="font-family:'Menlo-Regular', 'Menlo', monospace;font-size:11px;fill:rgb(92,184,92);">extracts traceparent</text>
    </g>
    <g transform="matrix(0,-1,1,0,-109,435)">
        <path d="M158.5,273L162,280L155,280L158.5,273Z" style="fill:rgb(75,156,214);stroke:rgb(75,156,214);stroke-width:1px;stroke-linecap:round;stroke-linejoin:round;stroke-miterlimit:1.5;"/>
    </g>
    <g transform="matrix(0,1,-1,0,623.937159,-17.274607)">
        <path d="M158.5,273L162,280L155,280L158.5,273Z" style="fill:rgb(75,156,214);stroke:rgb(75,156,214);stroke-width:1px;stroke-linecap:round;stroke-linejoin:round;stroke-miterlimit:1.5;"/>
    </g>
</svg>
